# xmcd CD database file
#
# Track frame offsets:
#	150
#	6427
#	10677
#	15900
#	21417
#	25510
#	31140
#	36980
#	41977
#	68510
#	72525
#	76755
#	81242
#	85897
#	93107
#	97332
#	102497
#	107462
#	111460
#	119785
#	124597
#	130135
#	135550
#	140740
#	147260
#	152610
#	159270
#	164382
#	173010
#	178692
#	189540
#	211820
#	217340
#	223187
#	230830
#	236320
#	240912
#	246102
#	251595
#	256780
#	262645
#	268477
#	273975
#	293410
#
# Disc length: 4112 seconds
#
# Revision: 0
# Processed by: cddbd v1.4PL0 Copyright (c) Steve Scherf et al.
# Submitted via: CDex 1.40Beta5
#
DISCID=6a100e2c
DTITLE=Masahiro Ando - Arc the Lad 2 OST
DYEAR=1997
DGENRE=Blues
TTITLE0=Opening
TTITLE1=West Aldia
TTITLE2=Skyport
TTITLE3=Battle 1
TTITLE4=Lieza's Memories
TTITLE5=Battle 2
TTITLE6=Elc
TTITLE7=Shu
TTITLE8=MusicMan
TTITLE9=Prodias
TTITLE10=Memories
TTITLE11=Yagos Island
TTITLE12=Ruins
TTITLE13=Unknown
TTITLE14=Gallerno's Plans
TTITLE15=Battle 3
TTITLE16=The Silver Noah
TTITLE17=A Suspicious Place
TTITLE18=Battle 4
TTITLE19=Toviel Shrine
TTITLE20=Lieza
TTITLE21=Gruga
TTITLE22=Unknown 2
TTITLE23=Battle With the 4 Generals
TTITLE24=Romalia
TTITLE25=Time Battle
TTITLE26=Unknown 3
TTITLE27=My Father Yoshua
TTITLE28=Last Battle
TTITLE29=Ending
TTITLE30=To Tomorrow
TTITLE31=Bonus - Battle 5
TTITLE32=Bonus - Clenia Island
TTITLE33=Bonus - Arc
TTITLE34=Bonus - Amig
TTITLE35=Bonus - Dungeon
TTITLE36=Bonus - Lost Forest
TTITLE37=Bonus - Muriel
TTITLE38=Bonus - Monji
TTITLE39=Bonus - Gears
TTITLE40=Bonus - Romalia Castle
TTITLE41=Bonus - Monster Game
TTITLE42=Bonus - Chongara
TTITLE43=Bonus - Mix
EXTD=YEAR: 1997 ID3G:   0
EXTT0=
EXTT1=
EXTT2=
EXTT3=
EXTT4=
EXTT5=
EXTT6=
EXTT7=
EXTT8=
EXTT9=
EXTT10=
EXTT11=
EXTT12=
EXTT13=
EXTT14=
EXTT15=
EXTT16=
EXTT17=
EXTT18=
EXTT19=
EXTT20=
EXTT21=
EXTT22=
EXTT23=
EXTT24=
EXTT25=
EXTT26=
EXTT27=
EXTT28=
EXTT29=
EXTT30=
EXTT31=
EXTT32=
EXTT33=
EXTT34=
EXTT35=
EXTT36=
EXTT37=
EXTT38=
EXTT39=
EXTT40=
EXTT41=
EXTT42=
EXTT43=
PLAYORDER=
